{
    "accessors": [
        {
            "bufferView": 0,
            "byteOffset": 0,
            "componentType": 5123,
            "count": 180,
            "type": "SCALAR",
            "max": [75],
            "min": [0]
        },
        {
            "bufferView": 1,
            "byteOffset": 0,
            "componentType": 5126,
            "count": 76,
            "type": "VEC3",
            "max": [0, 0.16180939972400665, 0.24006520211696625],
            "min": [-0.2639999985694885, 0, 0],
            "name": "POSITION"
        },
        {
            "bufferView": 1,
            "byteOffset": 12,
            "componentType": 5126,
            "count": 76,
            "type": "VEC3",
            "max": [1.0000044107437134, 1.0000044107437134, 0.9128382802009583],
            "min": [
                -1.0000044107437134, -1.0000044107437134, -1.0000044107437134
            ],
            "name": "NORMAL"
        },
        {
            "bufferView": 1,
            "byteOffset": 24,
            "componentType": 5126,
            "count": 76,
            "type": "VEC2",
            "max": [23.62204933166504, 15.893059730529785],
            "min": [-23.62204933166504, -19.547149658203125],
            "name": "TEXCOORD_0"
        },
        {
            "bufferView": 0,
            "byteOffset": 360,
            "componentType": 5123,
            "count": 6,
            "type": "SCALAR",
            "max": [3],
            "min": [0]
        },
        {
            "bufferView": 2,
            "byteOffset": 0,
            "componentType": 5126,
            "count": 4,
            "type": "VEC3",
            "max": [
                -0.017734959721565247, 0.14562030136585236, 0.22077399492263794
            ],
            "min": [
                -0.2462649941444397, 0.029389070346951485, 0.16878129541873932
            ],
            "name": "POSITION"
        },
        {
            "bufferView": 2,
            "byteOffset": 12,
            "componentType": 5126,
            "count": 4,
            "type": "VEC3",
            "max": [0, 0.4083321988582611, -0.9128382802009583],
            "min": [0, 0.4083321988582611, -0.9128382802009583],
            "name": "NORMAL"
        },
        {
            "bufferView": 2,
            "byteOffset": 24,
            "componentType": 5126,
            "count": 4,
            "type": "VEC2",
            "max": [22.03516960144043, -6.567098140716553],
            "min": [1.586879014968872, -17.960269927978516],
            "name": "TEXCOORD_0"
        },
        {
            "bufferView": 0,
            "byteOffset": 372,
            "componentType": 5123,
            "count": 18,
            "type": "SCALAR",
            "max": [11],
            "min": [0]
        },
        {
            "bufferView": 3,
            "byteOffset": 0,
            "componentType": 5126,
            "count": 12,
            "type": "VEC3",
            "max": [
                -0.025660110637545586, 0.013199999928474426, 0.13834619522094727
            ],
            "min": [
                -0.2423110008239746, 0.013199999928474426, 0.01899120956659317
            ],
            "name": "POSITION"
        },
        {
            "bufferView": 3,
            "byteOffset": 12,
            "componentType": 5126,
            "count": 12,
            "type": "VEC3",
            "max": [0, 1.0000044107437134, 0],
            "min": [0, 1.0000044107437134, 0],
            "name": "NORMAL"
        },
        {
            "bufferView": 3,
            "byteOffset": 24,
            "componentType": 5126,
            "count": 12,
            "type": "VEC2",
            "max": [21.68136978149414, 0.30071502923965454],
            "min": [2.2960009574890137, -10.378870010375977],
            "name": "TEXCOORD_0"
        },
        {
            "bufferView": 0,
            "byteOffset": 408,
            "componentType": 5123,
            "count": 18,
            "type": "SCALAR",
            "max": [11],
            "min": [0]
        },
        {
            "bufferView": 4,
            "byteOffset": 0,
            "componentType": 5126,
            "count": 12,
            "type": "VEC3",
            "max": [
                -0.025660110637545586, 0.013199999928474426, 0.13834619522094727
            ],
            "min": [
                -0.2423110008239746, 0.013199999928474426, 0.01899120956659317
            ],
            "name": "POSITION"
        },
        {
            "bufferView": 4,
            "byteOffset": 12,
            "componentType": 5126,
            "count": 12,
            "type": "VEC3",
            "max": [0, 1.0000044107437134, 0],
            "min": [0, 1.0000044107437134, 0],
            "name": "NORMAL"
        },
        {
            "bufferView": 4,
            "byteOffset": 24,
            "componentType": 5126,
            "count": 12,
            "type": "VEC2",
            "max": [21.68136978149414, 0.30071502923965454],
            "min": [2.2960009574890137, -10.378870010375977],
            "name": "TEXCOORD_0"
        },
        {
            "bufferView": 0,
            "byteOffset": 444,
            "componentType": 5123,
            "count": 180,
            "type": "SCALAR",
            "max": [75],
            "min": [0]
        },
        {
            "bufferView": 5,
            "byteOffset": 0,
            "componentType": 5126,
            "count": 76,
            "type": "VEC3",
            "max": [0, 0.16180939972400665, 0.24006520211696625],
            "min": [-0.2639999985694885, 0, 0],
            "name": "POSITION"
        },
        {
            "bufferView": 5,
            "byteOffset": 12,
            "componentType": 5126,
            "count": 76,
            "type": "VEC3",
            "max": [1.0000044107437134, 1.0000044107437134, 0.9128382802009583],
            "min": [
                -1.0000044107437134, -1.0000044107437134, -1.0000044107437134
            ],
            "name": "NORMAL"
        },
        {
            "bufferView": 5,
            "byteOffset": 24,
            "componentType": 5126,
            "count": 76,
            "type": "VEC2",
            "max": [23.62204933166504, 15.893059730529785],
            "min": [-23.62204933166504, -19.547149658203125],
            "name": "TEXCOORD_0"
        },
        {
            "bufferView": 0,
            "byteOffset": 804,
            "componentType": 5123,
            "count": 6,
            "type": "SCALAR",
            "max": [3],
            "min": [0]
        },
        {
            "bufferView": 6,
            "byteOffset": 0,
            "componentType": 5126,
            "count": 4,
            "type": "VEC3",
            "max": [
                -0.017734959721565247, 0.14562030136585236, 0.22077399492263794
            ],
            "min": [
                -0.2462649941444397, 0.029389070346951485, 0.16878129541873932
            ],
            "name": "POSITION"
        },
        {
            "bufferView": 6,
            "byteOffset": 12,
            "componentType": 5126,
            "count": 4,
            "type": "VEC3",
            "max": [0, 0.4083321988582611, -0.9128382802009583],
            "min": [0, 0.4083321988582611, -0.9128382802009583],
            "name": "NORMAL"
        },
        {
            "bufferView": 6,
            "byteOffset": 24,
            "componentType": 5126,
            "count": 4,
            "type": "VEC2",
            "max": [22.03516960144043, -6.567098140716553],
            "min": [1.586879014968872, -17.960269927978516],
            "name": "TEXCOORD_0"
        }
    ],
    "asset": { "generator": "Aspose.3D 24.4.1", "version": "2.0" },
    "buffers": [
        {
            "uri": "data:application/octet-stream;base64,",
            "byteLength": 6732
        }
    ],
    "bufferViews": [
        { "buffer": 0, "byteOffset": 0, "byteLength": 816, "target": 34963 },
        {
            "buffer": 0,
            "byteOffset": 820,
            "byteLength": 2432,
            "byteStride": 32,
            "target": 34962
        },
        {
            "buffer": 0,
            "byteOffset": 3256,
            "byteLength": 128,
            "byteStride": 32,
            "target": 34962
        },
        {
            "buffer": 0,
            "byteOffset": 3388,
            "byteLength": 384,
            "byteStride": 32,
            "target": 34962
        },
        {
            "buffer": 0,
            "byteOffset": 3776,
            "byteLength": 384,
            "byteStride": 32,
            "target": 34962
        },
        {
            "buffer": 0,
            "byteOffset": 4164,
            "byteLength": 2432,
            "byteStride": 32,
            "target": 34962
        },
        {
            "buffer": 0,
            "byteOffset": 6600,
            "byteLength": 128,
            "byteStride": 32,
            "target": 34962
        }
    ],
    "materials": [
        {
            "name": "metalDark",
            "pbrMetallicRoughness": {
                "baseColorFactor": [0.07, 0.12, 0.12, 1],
                "metallicFactor": 0,
                "roughnessFactor": 1
            },
            "emissiveFactor": [0, 0, 0],
            "alphaMode": "OPAQUE",
            "doubleSided": false
        },
        {
            "name": "metal",
            "pbrMetallicRoughness": {
                "baseColorFactor": [0.52, 0.65, 0.68, 1],
                "metallicFactor": 0,
                "roughnessFactor": 1
            },
            "emissiveFactor": [0, 0, 0],
            "alphaMode": "OPAQUE",
            "doubleSided": false
        },
        {
            "name": "metalMedium",
            "pbrMetallicRoughness": {
                "baseColorFactor": [0.11, 0.19, 0.19, 1],
                "metallicFactor": 0,
                "roughnessFactor": 1
            },
            "emissiveFactor": [0, 0, 0],
            "alphaMode": "OPAQUE",
            "doubleSided": false
        },
        {
            "name": "metalMedium",
            "pbrMetallicRoughness": {
                "baseColorFactor": [0.11, 0.19, 0.19, 1],
                "metallicFactor": 0,
                "roughnessFactor": 1
            },
            "emissiveFactor": [0, 0, 0],
            "alphaMode": "OPAQUE",
            "doubleSided": false
        },
        {
            "name": "metalDark",
            "pbrMetallicRoughness": {
                "baseColorFactor": [0.07, 0.12, 0.12, 1],
                "metallicFactor": 0,
                "roughnessFactor": 1
            },
            "emissiveFactor": [0, 0, 0],
            "alphaMode": "OPAQUE",
            "doubleSided": false
        },
        {
            "name": "metal",
            "pbrMetallicRoughness": {
                "baseColorFactor": [0.52, 0.65, 0.68, 1],
                "metallicFactor": 0,
                "roughnessFactor": 1
            },
            "emissiveFactor": [0, 0, 0],
            "alphaMode": "OPAQUE",
            "doubleSided": false
        }
    ],
    "meshes": [
        {
            "primitives": [
                {
                    "attributes": {
                        "POSITION": 1,
                        "NORMAL": 2,
                        "TEXCOORD_0": 3
                    },
                    "indices": 0,
                    "material": 0,
                    "mode": 4
                },
                {
                    "attributes": {
                        "POSITION": 5,
                        "NORMAL": 6,
                        "TEXCOORD_0": 7
                    },
                    "indices": 4,
                    "material": 1,
                    "mode": 4
                },
                {
                    "attributes": {
                        "POSITION": 9,
                        "NORMAL": 10,
                        "TEXCOORD_0": 11
                    },
                    "indices": 8,
                    "material": 2,
                    "mode": 4
                }
            ]
        },
        {
            "primitives": [
                {
                    "attributes": {
                        "POSITION": 13,
                        "NORMAL": 14,
                        "TEXCOORD_0": 15
                    },
                    "indices": 12,
                    "material": 3,
                    "mode": 4
                },
                {
                    "attributes": {
                        "POSITION": 17,
                        "NORMAL": 18,
                        "TEXCOORD_0": 19
                    },
                    "indices": 16,
                    "material": 4,
                    "mode": 4
                },
                {
                    "attributes": {
                        "POSITION": 21,
                        "NORMAL": 22,
                        "TEXCOORD_0": 23
                    },
                    "indices": 20,
                    "material": 5,
                    "mode": 4
                }
            ]
        }
    ],
    "nodes": [
        { "mesh": 0, "name": "laptop" },
        { "mesh": 1, "name": "laptop_1" }
    ],
    "scene": 0,
    "scenes": [{ "nodes": [0, 1] }]
}
