{"accessors" : [{"bufferView" : 0, "byteOffset" : 0, "componentType" : 5123, "count" : 3828, "type" : "SCALAR", "max" : [2481], "min" : [0]}, {"bufferView" : 1, "byteOffset" : 0, "componentType" : 5126, "count" : 2482, "type" : "VEC3", "max" : [0.2300000935792923, 0.06083225831389427, 0.1416666954755783], "min" : [-0.22999979555606842, -0.0691683292388916, -0.13833339512348175], "name" : "POSITION"}, {"bufferView" : 1, "byteOffset" : 12, "componentType" : 5126, "count" : 2482, "type" : "VEC3", "max" : [1.0000044107437134, 1.0000044107437134, 1.0000044107437134], "min" : [-1.0000044107437134, -1.0000044107437134, -1.0000044107437134], "name" : "NORMAL"}, {"bufferView" : 1, "byteOffset" : 24, "componentType" : 5126, "count" : 2482, "type" : "VEC2", "max" : [0.22875060141086578, 2.1565942764282227], "min" : [-0.22852039337158203, 1.7003682851791382], "name" : "TEXCOORD_0"}, {"bufferView" : 0, "byteOffset" : 7656, "componentType" : 5123, "count" : 3918, "type" : "SCALAR", "max" : [2569], "min" : [0]}, {"bufferView" : 2, "byteOffset" : 0, "componentType" : 5126, "count" : 2570, "type" : "VEC3", "max" : [0.21227289736270905, 0.06083201989531517, 0.13166670501232147], "min" : [-0.21227270364761353, -0.0691683292388916, -0.13833339512348175], "name" : "POSITION"}, {"bufferView" : 2, "byteOffset" : 12, "componentType" : 5126, "count" : 2570, "type" : "VEC3", "max" : [1.0000044107437134, 1.0000044107437134, 1.0000044107437134], "min" : [-1.0000044107437134, -1.0000044107437134, -1.0000044107437134], "name" : "NORMAL"}, {"bufferView" : 2, "byteOffset" : 24, "componentType" : 5126, "count" : 2570, "type" : "VEC2", "max" : [0.22937439382076263, 2.1564512252807617], "min" : [-0.22920680046081543, 1.699583888053894], "name" : "TEXCOORD_0"}, {"bufferView" : 0, "byteOffset" : 15492, "componentType" : 5123, "count" : 324, "type" : "SCALAR", "max" : [215], "min" : [0]}, {"bufferView" : 3, "byteOffset" : 0, "componentType" : 5126, "count" : 216, "type" : "VEC3", "max" : [0.19967719912528992, 0.04712342843413353, 0.11134380102157593], "min" : [-0.19967690110206604, -0.012242560274899006, -0.13833339512348175], "name" : "POSITION"}, {"bufferView" : 3, "byteOffset" : 12, "componentType" : 5126, "count" : 216, "type" : "VEC3", "max" : [0.9351181983947754, 0.7071115374565125, 0.9351176023483276], "min" : [-0.9351183772087097, -0.25056496262550354, -0.9351180195808411], "name" : "NORMAL"}, {"bufferView" : 3, "byteOffset" : 24, "componentType" : 5126, "count" : 216, "type" : "VEC2", "max" : [0.22624599933624268, 1.9025230407714844], "min" : [-0.22541649639606476, 1.7028088569641113], "name" : "TEXCOORD_0"}], "asset" : {"generator" : "Aspose.3D 24.4.1", "version" : "2.0"}, "buffers" : [{"uri" : "data:application/octet-stream;base64,", "byteLength" : 184732}], "bufferViews" : [{"buffer" : 0, "byteOffset" : 0, "byteLength" : 16140, "target" : 34963}, {"buffer" : 0, "byteOffset" : 16144, "byteLength" : 79424, "byteStride" : 32, "target" : 34962}, {"buffer" : 0, "byteOffset" : 95572, "byteLength" : 82240, "byteStride" : 32, "target" : 34962}, {"buffer" : 0, "byteOffset" : 177816, "byteLength" : 6912, "byteStride" : 32, "target" : 34962}], "materials" : [{"name" : "mat21", "pbrMetallicRoughness" : {"baseColorFactor" : [1, 1, 1, 1], "metallicFactor" : 0, "roughnessFactor" : 1}, "emissiveFactor" : [0, 0, 0], "alphaMode" : "OPAQUE", "doubleSided" : false}, {"name" : "mat23", "pbrMetallicRoughness" : {"baseColorFactor" : [0.01, 0.01, 0.01, 1], "metallicFactor" : 0, "roughnessFactor" : 1}, "emissiveFactor" : [0, 0, 0], "alphaMode" : "OPAQUE", "doubleSided" : false}, {"name" : "mat5", "pbrMetallicRoughness" : {"baseColorFactor" : [0, 0.34, 0.79, 1], "metallicFactor" : 0, "roughnessFactor" : 1}, "emissiveFactor" : [0, 0, 0], "alphaMode" : "OPAQUE", "doubleSided" : false}], "meshes" : [{"primitives" : [{"attributes" : {"POSITION" : 1, "NORMAL" : 2, "TEXCOORD_0" : 3}, "indices" : 0, "material" : 0, "mode" : 4}, {"attributes" : {"POSITION" : 5, "NORMAL" : 6, "TEXCOORD_0" : 7}, "indices" : 4, "material" : 1, "mode" : 4}, {"attributes" : {"POSITION" : 9, "NORMAL" : 10, "TEXCOORD_0" : 11}, "indices" : 8, "material" : 2, "mode" : 4}]}], "nodes" : [{"mesh" : 0, "name" : "group63361916"}], "scene" : 0, "scenes" : [{"nodes" : [0]}]}